<svg width="96" height="96" viewBox="0 0 96 96" fill="none" xmlns="http://www.w3.org/2000/svg">
<path fill-rule="evenodd" clip-rule="evenodd" d="M61.8271 73.7803C61.8271 73.2715 61.4144 72.859 60.9058 72.859H27.0001C26.4915 72.859 26.0787 73.2715 26.0787 73.7803V86.8635C26.0787 87.3723 26.4915 87.7848 27.0001 87.7848H60.9058C61.4144 87.7848 61.8271 87.3723 61.8271 86.8635V73.7803ZM77.3059 73.7803C77.3059 73.2715 76.8931 72.859 76.3845 72.859H63.8541C63.3454 72.859 62.9328 73.2715 62.9328 73.7803V86.8635C62.9328 87.3723 63.3454 87.7848 63.8541 87.7848H76.3845C76.8931 87.7848 77.3059 87.3723 77.3059 86.8635V73.7803ZM24.9731 73.7803C24.9731 73.2715 24.5604 72.859 24.0518 72.859H3.96627C3.45765 72.859 3.04492 73.2715 3.04492 73.7803V86.8635C3.04492 87.3723 3.45765 87.7848 3.96627 87.7848H24.0518C24.5604 87.7848 24.9731 87.3723 24.9731 86.8635V73.7803ZM59.9845 74.7016V85.9421H27.9214V74.7016H59.9845ZM75.463 74.7016V85.9421H64.7754V74.7016H75.463ZM23.1303 74.7016V85.9421H4.88758V74.7016H23.1303ZM77.3059 57.5645C77.3059 57.0557 76.8931 56.6432 76.3845 56.6432H40.8203C40.3116 56.6432 39.899 57.0557 39.899 57.5645V70.6477C39.899 71.1565 40.3116 71.569 40.8203 71.569H76.3845C76.8931 71.569 77.3059 71.1565 77.3059 70.6477V57.5645ZM38.7933 57.5645C38.7933 57.0557 38.3806 56.6432 37.872 56.6432H3.96627C3.45765 56.6432 3.04492 57.0557 3.04492 57.5645V70.6477C3.04492 71.1565 3.45765 71.569 3.96627 71.569H37.872C38.3806 71.569 38.7933 71.1565 38.7933 70.6477V57.5645ZM36.9507 58.4859V69.7264H4.88758V58.4859H36.9507ZM75.463 58.4859V69.7264H41.7416V58.4859H75.463ZM17.4178 40.9802C17.4178 40.4714 17.0052 40.0589 16.4965 40.0589H3.96627C3.45765 40.0589 3.04492 40.4714 3.04492 40.9802V54.0634C3.04492 54.5722 3.45765 54.9847 3.96627 54.9847H16.4965C17.0052 54.9847 17.4178 54.5722 17.4178 54.0634V40.9802ZM76.2002 54.9847C76.7634 55.0538 77.3114 54.6585 77.3059 54.0634V52.405C77.2851 51.1947 75.484 51.1937 75.4632 52.405V53.511C75.0055 54.0821 75.459 55.0086 76.2002 54.9847ZM55.9304 40.9802C55.9304 40.4714 55.5177 40.0589 55.0091 40.0589H19.445C18.9363 40.0589 18.5237 40.4714 18.5237 40.9802V54.0634C18.5237 54.5722 18.9363 54.9847 19.445 54.9847H55.0091C55.5177 54.9847 55.9304 54.5722 55.9304 54.0634V40.9802ZM59.6159 54.9847H61.4585C61.9671 54.9847 62.3798 54.572 62.3798 54.0634C62.3798 53.5547 61.9671 53.142 61.4585 53.142H59.6159C58.4053 53.1628 58.4046 54.9637 59.6159 54.9847ZM65.144 54.9847H66.9866C67.4953 54.9847 67.908 54.572 67.908 54.0634C67.908 53.5547 67.4953 53.142 66.9866 53.142H65.144C63.9334 53.1628 63.9327 54.9637 65.144 54.9847ZM70.6721 54.9847H72.5148C73.0234 54.9847 73.4361 54.572 73.4361 54.0634C73.4361 53.5547 73.0234 53.142 72.5148 53.142H70.6721C69.4616 53.1628 69.4608 54.9637 70.6721 54.9847ZM15.5752 41.9015V53.142H4.88758V41.9015H15.5752ZM54.0878 41.9015V53.142H20.3663V41.9015H54.0878ZM57.036 50.1936V52.0362C57.036 52.5449 57.4487 52.9576 57.9573 52.9576C58.4659 52.9576 58.8787 52.5449 58.8787 52.0362V50.1936C58.8579 48.9832 57.057 48.9825 57.036 50.1936ZM77.3059 48.7195V46.8769C77.3059 46.3683 76.8931 45.9556 76.3845 45.9556C75.8759 45.9556 75.4632 46.3683 75.4632 46.8769V48.7195C75.484 49.9299 77.2849 49.9306 77.3059 48.7195ZM57.036 44.6655V46.5081C57.036 47.0167 57.4487 47.4294 57.9573 47.4294C58.4659 47.4294 58.8787 47.0167 58.8787 46.5081V44.6655C58.8579 43.4551 57.057 43.4544 57.036 44.6655ZM75.463 41.9015V43.1914C75.4836 44.4014 77.2849 44.4029 77.3057 43.1914V41.3488C77.3735 40.7231 77.1061 40.0622 76.3843 40.0589H74.5417C73.3376 40.0647 73.3363 41.8958 74.5417 41.9015H75.463ZM65.3283 40.0589H63.4856C62.977 40.0589 62.5643 40.4716 62.5643 40.9802C62.5643 41.4888 62.977 41.9015 63.4856 41.9015H65.3283C66.5386 41.8807 66.5396 40.0796 65.3283 40.0589ZM70.8564 40.0589H69.0138C68.5052 40.0589 68.0924 40.4716 68.0924 40.9802C68.0924 41.4888 68.5052 41.9015 69.0138 41.9015H70.8564C72.0667 41.8807 72.0677 40.0796 70.8564 40.0589ZM61.8271 38.7689H63.6698C64.1784 38.7689 64.5911 38.3562 64.5911 37.8476C64.5911 37.339 64.1784 36.9263 63.6698 36.9263H61.8271C60.6166 36.9471 60.6158 38.748 61.8271 38.7689ZM67.3552 38.7689H69.1979C69.7065 38.7689 70.1192 38.3562 70.1192 37.8476C70.1192 37.339 69.7065 36.9263 69.1979 36.9263H67.3552C66.1447 36.9471 66.1439 38.748 67.3552 38.7689ZM45.2427 38.7689H47.0854C47.594 38.7689 48.0067 38.3562 48.0067 37.8476C48.0067 37.339 47.594 36.9263 47.0854 36.9263H45.2427C44.0322 36.9471 44.0315 38.748 45.2427 38.7689ZM50.7709 38.7689H52.6135C53.1221 38.7689 53.5349 38.3562 53.5349 37.8476C53.5349 37.339 53.1221 36.9263 52.6135 36.9263H50.7709C49.5603 36.9471 49.5596 38.748 50.7709 38.7689ZM56.299 38.7689H58.1416C58.6502 38.7689 59.063 38.3562 59.063 37.8476C59.063 37.339 58.6502 36.9263 58.1416 36.9263H56.299C55.0885 36.9471 55.0877 38.748 56.299 38.7689ZM72.8833 38.7689H74.726C75.2346 38.7689 75.6473 38.3562 75.6473 37.8476C75.6473 37.339 75.2346 36.9263 74.726 36.9263H72.8833C71.6728 36.9471 71.6721 38.748 72.8833 38.7689ZM40.4516 24.7644C40.4516 24.2556 40.039 23.8431 39.5303 23.8431H3.96627C3.45765 23.8431 3.04492 24.2556 3.04492 24.7644V37.8476C3.04492 38.3564 3.45765 38.7689 3.96627 38.7689H39.5303C40.039 38.7689 40.4516 38.3564 40.4516 37.8476V24.7644ZM41.5573 35.0835V36.9261C41.5573 37.4347 41.97 37.8474 42.4786 37.8474C42.9872 37.8474 43.3999 37.4347 43.3999 36.9261V35.0835C43.3794 33.8731 41.5782 33.8722 41.5573 35.0835ZM38.609 25.6857V36.9263H4.88758V25.6857H38.609ZM77.3059 35.8205V33.9778C77.3059 33.4692 76.8931 33.0565 76.3845 33.0565C75.8759 33.0565 75.4632 33.4692 75.4632 33.9778V35.8205C75.484 37.031 77.2849 37.0318 77.3059 35.8205ZM41.5573 29.5553V31.398C41.5573 31.9066 41.97 32.3193 42.4786 32.3193C42.9872 32.3193 43.3999 31.9066 43.3999 31.398V29.5553C43.3794 28.345 41.5782 28.3441 41.5573 29.5553ZM77.3059 30.2925V28.4499C77.3059 27.9413 76.8931 27.5286 76.3845 27.5286C75.8759 27.5286 75.4632 27.9413 75.4632 28.4499V30.2925C75.484 31.5029 77.2849 31.5038 77.3059 30.2925ZM43.4001 25.6672C44.4631 25.4608 44.3119 23.8361 43.2158 23.8429H42.4788C41.9701 23.8429 41.5575 24.2554 41.5575 24.7642V25.8699C41.6356 27.2182 43.5649 27.0073 43.4001 25.6672ZM76.3845 25.6857C76.8931 25.6857 77.3059 25.273 77.3059 24.7644C77.3075 24.2635 76.895 23.8414 76.3845 23.8431H74.5419C73.3315 23.8639 73.3306 25.665 74.5419 25.6857C74.5417 25.6857 76.3845 25.6857 76.3845 25.6857ZM70.8564 23.8429H69.0138C68.5052 23.8429 68.0924 24.2556 68.0924 24.7642C68.0924 25.2729 68.5052 25.6856 69.0138 25.6856H70.8564C72.0667 25.6648 72.0677 23.8639 70.8564 23.8429ZM54.2721 23.8429H52.4294C51.9208 23.8429 51.5081 24.2556 51.5081 24.7642C51.5081 25.2729 51.9208 25.6856 52.4294 25.6856H54.2721C55.4824 25.6648 55.4833 23.8639 54.2721 23.8429ZM65.3283 23.8429H63.4856C62.977 23.8429 62.5643 24.2556 62.5643 24.7642C62.5643 25.2729 62.977 25.6856 63.4856 25.6856H65.3283C66.5386 25.6648 66.5396 23.8639 65.3283 23.8429ZM59.8002 23.8429H57.9575C57.4489 23.8429 57.0362 24.2556 57.0362 24.7642C57.0362 25.2729 57.4489 25.6856 57.9575 25.6856H59.8002C61.0105 25.6648 61.0114 23.8639 59.8002 23.8429ZM48.7439 23.8429H46.9013C46.3927 23.8429 45.98 24.2556 45.98 24.7642C45.98 25.2729 46.3927 25.6856 46.9013 25.6856H48.7439C49.9543 25.6648 49.9552 23.8639 48.7439 23.8429ZM89.2889 16.3419C94.1561 11.0877 94.7792 13.0224 90.3319 8.52387C89.9706 8.16408 89.3883 8.16408 89.0291 8.52387L85.2497 12.3027L82.7087 9.76179C82.4727 9.52585 82.1282 9.436 81.8075 9.52659C81.4851 9.61718 81.2381 9.87443 81.1607 10.1989L78.2953 22.1862C78.1193 22.8288 78.7611 23.4717 79.4046 23.2966L91.3932 20.4301C91.7176 20.3526 91.9737 20.1056 92.0639 19.7844C92.156 19.4634 92.0658 19.1185 91.8298 18.8824L89.2889 16.3419ZM87.3338 15.6903C86.9744 16.0503 86.9744 16.6335 87.3338 16.9933L89.3626 19.0211L80.4366 21.1558L82.5704 12.2294L84.5974 14.257C84.9586 14.617 85.5408 14.617 85.9002 14.257L89.6796 10.4784L91.1132 11.9117L87.3338 15.6903Z" fill="black"/>
</svg>
