<svg width="20" height="20" viewBox="0 0 20 20" fill="none" xmlns="http://www.w3.org/2000/svg">
<g clip-path="url(#clip0_242_13520)">
<path d="M11.598 12.1766C11.1035 12.5062 10.5292 12.6805 9.93706 12.6805C9.34495 12.6805 8.77062 12.5062 8.27618 12.1766L0.132326 6.74718C0.0871434 6.71706 0.0431253 6.68565 0 6.65336V15.55C0 16.57 0.827765 17.3796 1.82955 17.3796H18.0445C19.0646 17.3796 19.8741 16.5518 19.8741 15.55V6.65332C19.8309 6.68569 19.7868 6.71717 19.7415 6.74733L11.598 12.1766Z" fill="black"/>
<path d="M0.778274 5.77772L8.92212 11.2072C9.23041 11.4127 9.58371 11.5154 9.93702 11.5154C10.2904 11.5154 10.6437 11.4127 10.952 11.2072L19.0959 5.77772C19.5832 5.45302 19.8741 4.90958 19.8741 4.32307C19.8741 3.31457 19.0537 2.49414 18.0452 2.49414H1.82892C0.820468 2.49418 0 3.31461 0 4.32404C0 4.90958 0.29097 5.45302 0.778274 5.77772Z" fill="black"/>
</g>
<defs>
<clipPath id="clip0_242_13520">
<rect width="19.8741" height="19.8741" fill="white"/>
</clipPath>
</defs>
</svg>
