<svg width="20" height="20" viewBox="0 0 20 20" fill="none" xmlns="http://www.w3.org/2000/svg">
<path d="M19.2348 14.3094C19.1805 14.2663 15.2368 11.4236 14.1544 11.6277C13.6376 11.7191 13.3422 12.0715 12.7493 12.7771C12.6539 12.891 12.4246 13.164 12.2464 13.3581C11.8717 13.2359 11.5062 13.0871 11.1527 12.9129C9.32794 12.0245 7.85359 10.5502 6.96522 8.7254C6.7909 8.37192 6.64213 8.00641 6.52004 7.63166C6.7148 7.4528 6.98774 7.22358 7.10434 7.12554C7.80656 6.53594 8.15965 6.24048 8.25107 5.72242C8.43855 4.64922 5.59788 0.67837 5.56807 0.642597C5.43918 0.458477 5.27098 0.305308 5.07563 0.194172C4.88029 0.0830365 4.66268 0.0167129 4.43855 0C3.28718 0 0 4.26433 0 4.98244C0 5.02418 0.0602849 9.26664 5.29182 14.5883C10.6081 19.8138 14.8499 19.8741 14.8917 19.8741C15.6105 19.8741 19.8741 16.5869 19.8741 15.4356C19.8576 15.2122 19.7917 14.9953 19.6811 14.8006C19.5706 14.6058 19.4181 14.438 19.2348 14.3094Z" fill="black"/>
</svg>
