<svg width="73" height="73" viewBox="0 0 73 73" fill="none" xmlns="http://www.w3.org/2000/svg">
<path d="M69.2438 58.5232C69.0299 58.3093 68.7398 58.189 68.4373 58.189C68.1348 58.189 67.8447 58.0688 67.6308 57.8549C67.4169 57.641 67.2967 57.3509 67.2967 57.0484C67.297 56.746 67.1772 56.456 66.9637 56.2419L56.714 45.9763C56.6082 45.8702 56.4825 45.7859 56.3442 45.7284C56.2058 45.6709 56.0574 45.6411 55.9076 45.641C55.6051 45.641 55.3149 45.5208 55.101 45.3069C54.8871 45.093 54.767 44.8028 54.767 44.5003C54.7669 44.1978 54.6467 43.9078 54.4328 43.6939L52.1515 41.4127C51.9396 41.2007 51.6528 41.0806 51.3531 41.0785L46.0971 41.0625L42.6752 37.6532C42.5215 37.4971 42.4002 37.3121 42.3186 37.1089C42.2369 36.9056 42.1965 36.6881 42.1996 36.4691C42.2026 36.2501 42.2492 36.0339 42.3365 35.833C42.4239 35.6321 42.5502 35.4506 42.7083 35.2989L55.4342 21.4654C56.3059 20.5939 56.9973 19.5593 57.469 18.4205C57.9407 17.2818 58.1835 16.0613 58.1835 14.8287C58.1835 13.5961 57.9407 12.3756 57.469 11.2369C56.9973 10.0981 56.3059 9.06346 55.4342 8.19196L51.1512 3.91348C49.3817 2.14778 46.984 1.15614 44.4842 1.15614C41.9845 1.15614 39.5868 2.14778 37.8173 3.91348L37.6405 4.09028L36.9721 3.42187C36.2297 2.71476 35.2438 2.32035 34.2186 2.32035C33.1934 2.32035 32.2075 2.71476 31.4651 3.42187L2.28111 32.6059C1.55087 33.3362 1.14062 34.3266 1.14062 35.3594C1.14063 36.3921 1.55087 37.3826 2.28111 38.1128L3.09437 38.9261L1.33211 41.5712C1.18609 41.7905 1.12051 42.0536 1.1465 42.3158C1.17249 42.578 1.28845 42.8232 1.47469 43.0095L4.56236 46.0972V66.7266C4.56236 68.0879 5.10313 69.3934 6.06572 70.356C7.02831 71.3186 8.33386 71.8594 9.69517 71.8594C11.0565 71.8594 12.362 71.3186 13.3246 70.356C14.2872 69.3934 14.828 68.0879 14.828 66.7266V58.1719C14.828 57.5668 15.0683 56.9866 15.4961 56.5588C15.924 56.131 16.5042 55.8906 17.1092 55.8906C17.7143 55.8906 18.2945 56.131 18.7223 56.5588C19.1501 56.9866 19.3905 57.5668 19.3905 58.1719C19.3905 59.3819 19.8712 60.5424 20.7268 61.398C21.5824 62.2537 22.7429 62.7344 23.953 62.7344C25.163 62.7344 26.3235 62.2537 27.1792 61.398C28.0348 60.5424 28.5155 59.3819 28.5155 58.1719V32.4097L44.4842 16.441C45.2145 15.7107 45.6247 14.7202 45.6247 13.6875C45.6247 12.6548 45.2145 11.6643 44.4842 10.934L42.6752 9.12499L43.3368 8.46343C43.646 8.16861 44.0569 8.00414 44.4842 8.00414C44.9115 8.00414 45.3224 8.16861 45.6317 8.46343L50.8786 13.7103C51.0274 13.8616 51.1447 14.041 51.2236 14.2381C51.3026 14.4351 51.3416 14.6458 51.3384 14.8581C51.3352 15.0703 51.2899 15.2798 51.2051 15.4744C51.1203 15.669 50.9977 15.8448 50.8444 15.9916L38.1264 29.8194C36.3571 31.5923 35.3635 33.9947 35.3635 36.4994C35.3635 39.0041 36.3571 41.4065 38.1264 43.1795L41.0624 46.1018L41.0795 51.3281C41.0816 51.6278 41.2017 51.9147 41.4137 52.1266L43.6949 54.4078C43.9088 54.6217 44.1988 54.7419 44.5013 54.742C44.8038 54.742 45.094 54.8622 45.3079 55.0761C45.5218 55.29 45.642 55.5801 45.642 55.8826C45.6417 56.185 45.7615 56.475 45.975 56.6891L56.2235 66.9547C56.3289 67.0622 56.4545 67.1478 56.5931 67.2065C56.7317 67.2652 56.8806 67.2959 57.0311 67.2969C57.3336 67.2969 57.6237 67.417 57.8376 67.631C58.0516 67.8449 58.1717 68.135 58.1717 68.4375C58.1718 68.74 58.292 69.0301 58.5059 69.2439L60.7872 71.5252C61.001 71.7391 61.2911 71.8593 61.5936 71.8594H63.8749C64.1773 71.8593 64.4674 71.7391 64.6813 71.5252L67.9811 68.2276C68.0251 68.195 68.0667 68.1592 68.1054 68.1204L71.5273 64.6985C71.7404 64.4843 71.8598 64.1943 71.8592 63.8921V61.6109C71.8592 61.3084 71.7389 61.0183 71.525 60.8044L69.2438 58.5232ZM5.84784 44.157L3.74909 42.0583L4.73915 40.5754L7.33408 43.1658L5.84784 44.157ZM26.2342 58.1719C26.2342 58.7769 25.9939 59.3571 25.5661 59.785C25.1382 60.2128 24.558 60.4531 23.953 60.4531C23.348 60.4531 22.7677 60.2128 22.3399 59.785C21.9121 59.3571 21.6717 58.7769 21.6717 58.1719C21.6717 56.9618 21.191 55.8013 20.3354 54.9457C19.4798 54.0901 18.3193 53.6094 17.1092 53.6094C15.8992 53.6094 14.7387 54.0901 13.8831 54.9457C13.0274 55.8013 12.5467 56.9618 12.5467 58.1719V66.7266C12.5467 67.4828 12.2463 68.2081 11.7115 68.7429C11.1768 69.2777 10.4515 69.5781 9.69517 69.5781C8.93889 69.5781 8.21358 69.2777 7.67881 68.7429C7.14404 68.2081 6.84361 67.4828 6.84361 66.7266V46.2352L8.97886 44.8106L9.79326 45.625C10.5235 46.3552 11.514 46.7655 12.5467 46.7655C13.5795 46.7655 14.5699 46.3552 15.3002 45.625L26.2342 34.691V58.1719ZM42.8714 12.5469C43.1737 12.8495 43.3435 13.2597 43.3435 13.6875C43.3435 14.1152 43.1737 14.5255 42.8714 14.8281L13.6874 44.0121C13.3779 44.3012 12.9702 44.462 12.5467 44.462C12.1233 44.462 11.7156 44.3012 11.4061 44.0121L3.89395 36.5C3.59166 36.1974 3.42186 35.7871 3.42186 35.3594C3.42186 34.9316 3.59166 34.5214 3.89395 34.2187L33.078 5.03471C33.3806 4.73242 33.7909 4.56262 34.2186 4.56262C34.6463 4.56262 35.0566 4.73242 35.3592 5.03471L42.8714 12.5469ZM39.7392 41.5644C39.0734 40.8948 38.546 40.1006 38.1872 39.2271C37.8285 38.3536 37.6454 37.418 37.6485 36.4737C37.6516 35.5295 37.8407 34.5951 38.2051 33.7239C38.5696 32.8528 39.1021 32.062 39.7723 31.3968L52.4869 17.5656C53.2112 16.8387 53.618 15.8543 53.618 14.8281C53.618 13.8019 53.2112 12.8175 52.4869 12.0906L47.24 6.84374C46.497 6.13262 45.5081 5.73569 44.4797 5.73569C43.4512 5.73569 42.4624 6.13262 41.7194 6.84374L41.0578 7.50531L39.2533 5.70312L39.4301 5.52632C40.7717 4.18801 42.5893 3.43643 44.4842 3.43643C46.3792 3.43643 48.1968 4.18801 49.5383 5.52632L53.8168 9.80937C54.4793 10.4721 55.0042 11.2593 55.3613 12.1256C55.7183 12.992 55.9005 13.9204 55.8973 14.8575C55.8942 15.7945 55.7057 16.7217 55.3427 17.5856C54.9798 18.4496 54.4496 19.2332 53.7826 19.8914L41.0624 33.7237C40.3274 34.4598 39.9146 35.4575 39.9146 36.4977C39.9146 37.5379 40.3274 38.5356 41.0624 39.2717L44.0086 42.2031L42.203 44.0144L39.7392 41.5644ZM43.3527 48.5838L43.3436 46.0972L46.0925 43.3437L48.5825 43.3506L43.3527 48.5838ZM45.9762 52.8041C45.6727 52.6569 45.349 52.5558 45.0158 52.5041L43.8329 51.3281L51.336 43.8251L52.5233 45.0125C52.5747 45.3412 52.6743 45.6606 52.8188 45.9603L45.9762 52.8041ZM58.5059 65.351C58.2029 65.2034 57.8796 65.1019 57.5467 65.0498L47.889 55.3785C47.8373 55.0452 47.7362 54.7215 47.589 54.4181L54.4328 47.5743C54.7394 47.7246 55.0671 47.8276 55.4046 47.88L65.0611 57.5514C65.1123 57.8803 65.2123 58.1998 65.3577 58.4992L58.5059 65.351ZM69.578 63.4187L66.6124 66.3844C66.568 66.4166 66.5264 66.4525 66.488 66.4916L63.4026 69.5781H62.0658L60.4153 67.9265C60.3633 67.5935 60.2618 67.2702 60.1142 66.9672L66.958 60.1235C67.264 60.2742 67.5914 60.3773 67.9286 60.4292L69.578 62.0831V63.4187Z" fill="black"/>
</svg>
