<svg width="91" height="91" viewBox="0 0 91 91" fill="none" xmlns="http://www.w3.org/2000/svg">
<path fill-rule="evenodd" clip-rule="evenodd" d="M10.7964 89.1226H87.4042C87.8862 89.1226 88.2772 88.7318 88.2772 88.2501V18.8429C88.2772 18.3594 87.8862 17.9704 87.4042 17.9704H78.52L84.8502 7.78085C85.6756 6.45211 85.2677 4.70731 83.9393 3.88209C83.1444 3.38763 82.1957 2.79878 81.4009 2.30432C80.0725 1.4791 78.3268 1.8863 77.5015 3.21504L68.3345 17.9704H18.8234C17.5653 7.99059 2.92527 8.70294 2.72266 18.843C2.72266 18.8429 2.72266 81.0487 2.72266 81.0487C2.72266 85.5055 6.34044 89.1226 10.7964 89.1226ZM17.1245 81.0215C17.1243 81.0305 17.1241 81.0396 17.1241 81.0488C17.1241 77.5572 14.2889 74.7217 10.7964 74.7217C7.30394 74.7217 4.46854 77.5571 4.46854 81.0488C4.46854 84.5406 7.30394 87.3758 10.7964 87.3758H86.5312C86.5312 79.9291 86.5312 27.1639 86.5312 19.7154H77.4351L71.9335 28.5708H77.003C77.4852 28.5708 77.876 28.9617 77.876 29.4433V82.4485C77.876 82.9319 77.4852 83.3228 77.003 83.3228H51.8596C51.3778 83.3228 50.9866 82.9302 50.9866 82.4485C50.9866 81.9668 51.3778 81.576 51.8596 81.576H54.1281V79.8365C54.1281 79.3548 54.5193 78.9642 55.0011 78.9642C55.4829 78.9642 55.8741 79.3548 55.8741 79.8365V81.576H76.1303V50.5185C75.402 50.5256 74.4376 50.6538 74.3843 49.646C74.4374 48.6383 75.4027 48.7664 76.1303 48.7735V30.3176H70.849L65.3115 39.2294C65.2333 39.3548 65.1247 39.4602 64.9956 39.5311L58.7712 43.0082C58.2014 43.3485 57.4188 42.8642 57.4736 42.2011L57.8324 35.0816C57.8399 34.9324 57.8848 34.7908 57.9627 34.6635L60.6637 30.3176H48.4736V31.9698C48.4736 32.4515 48.0824 32.8423 47.6006 32.8423C47.1187 32.8423 46.7276 32.4515 46.7276 31.9698V30.3176H29.8716V49.646C29.8716 50.1277 29.4804 50.5185 28.9986 50.5185C28.5167 50.5185 28.1255 50.1277 28.1255 49.646V29.4433C28.1255 28.9617 28.5165 28.5708 28.9986 28.5708H61.7484L67.2502 19.7154H18.8702V81.0704C18.8622 83.021 17.8063 84.0733 16.1029 84.6151C14.7135 85.0587 12.8192 85.1186 10.7966 85.1221C5.42511 84.9833 5.42475 77.1136 10.7968 76.9757C11.9401 76.9817 11.9364 78.7163 10.7966 78.7225C9.51211 78.7225 8.46934 79.764 8.46934 81.049C8.63428 84.0627 13.8862 84.0536 17.1243 82.365V81.049L17.1245 81.0215ZM47.6002 48.7733H34.5741C34.0922 48.7733 33.701 49.1642 33.701 49.6458C33.701 50.1275 34.0922 50.5183 34.5741 50.5183H46.7272V82.4483C46.7272 82.93 47.1184 83.3226 47.6002 83.3226C48.0821 83.3226 48.4733 82.93 48.4733 82.4483V49.6458C48.4804 49.164 48.0666 48.7746 47.6002 48.7733ZM54.1279 74.598V76.3446C54.1279 76.8262 54.5191 77.217 55.0009 77.217C55.4827 77.217 55.8739 76.8262 55.8739 76.3446V74.598C55.8542 73.4518 54.1478 73.4511 54.1279 74.598ZM17.1241 76.0356V18.8427C17.1241 15.3493 14.2889 12.5137 10.7964 12.5137C7.30394 12.5137 4.46854 15.3491 4.46854 18.8427V76.0356C7.4671 72.0023 14.1266 72.0034 17.1241 76.0356ZM54.1279 69.3596V71.1064C54.1279 71.588 54.5191 71.9789 55.0009 71.9789C55.4827 71.9789 55.8739 71.588 55.8739 71.1064V69.3596C55.8542 68.2134 54.1478 68.2127 54.1279 69.3596ZM54.1279 64.1212V65.868C54.1279 66.3496 54.5191 66.7405 55.0009 66.7405C55.4827 66.7405 55.8739 66.3496 55.8739 65.868V64.1212C55.8542 62.975 54.1478 62.9743 54.1279 64.1212ZM54.1279 58.8848V60.6298C54.1279 61.1115 54.5191 61.5041 55.0009 61.5041C55.4827 61.5041 55.8739 61.1115 55.8739 60.6298V58.8848C55.8537 57.7363 54.1483 57.7356 54.1279 58.8848ZM54.1279 53.6465V55.3914C54.1279 55.8731 54.5191 56.2657 55.0009 56.2657C55.4827 56.2657 55.8739 55.8731 55.8739 55.3914V53.6465C55.8537 52.4979 54.1483 52.4972 54.1279 53.6465ZM66.5272 48.7733H64.7811C64.2993 48.7733 63.9081 49.1642 63.9081 49.6458C63.9081 50.1275 64.2993 50.5183 64.7811 50.5183H66.5272C67.6741 50.4984 67.6748 48.7932 66.5272 48.7733ZM61.289 48.7733H59.5429C58.396 48.7931 58.3953 50.4984 59.5429 50.5182H61.2888C62.4359 50.4986 62.4366 48.7931 61.289 48.7733ZM71.7652 48.7733H70.0191C68.8722 48.7931 68.8713 50.4984 70.0191 50.5182H71.765C72.9121 50.4986 72.9128 48.7931 71.7652 48.7733ZM56.051 48.7733H54.3049C53.158 48.7931 53.1573 50.4984 54.3049 50.5182H56.0508C57.1979 50.4986 57.1986 48.7931 56.051 48.7733ZM48.4733 42.4444V40.6994C48.4733 40.216 48.0821 39.8251 47.6002 39.8251C47.1184 39.8251 46.7272 40.216 46.7272 40.6994V42.4444C46.7475 43.5929 48.4528 43.5936 48.4733 42.4444ZM75.2975 10.071L79.6799 12.7937L63.947 38.1166L59.2962 40.714L59.5642 35.3939L75.2975 10.071ZM48.4733 37.2062V35.4612C48.4733 34.9795 48.0821 34.5869 47.6002 34.5869C47.1184 34.5869 46.7272 34.9795 46.7272 35.4612V37.2062C46.7475 38.3546 48.4528 38.3553 48.4733 37.2062ZM80.6014 11.3107L76.2188 8.58795C79.9694 2.99216 78.4844 2.47833 83.0179 5.36349C83.5271 5.67968 83.6835 6.35046 83.3671 6.85931L80.6014 11.3107Z" fill="black"/>
</svg>
