<svg width="93" height="93" viewBox="0 0 93 93" fill="none" xmlns="http://www.w3.org/2000/svg">
<path fill-rule="evenodd" clip-rule="evenodd" d="M8.33008 3.88076V67.9906C8.33008 68.4819 8.72882 68.8807 9.22012 68.8807H49.6998L49.4399 72.5727C49.3794 73.42 49.7052 74.248 50.3228 74.8283C50.9423 75.4086 51.7896 75.6791 52.63 75.5634C56.423 75.031 60.031 74.0893 63.4625 72.7543L64.8796 75.8927C64.425 78.3213 65.4953 82.22 67.1191 85.0393C68.7495 87.7828 71.2397 91.0053 74.133 90.0009C76.8024 88.4946 76.032 84.4982 75.0535 81.4594C74.0086 78.3724 71.7984 74.9988 69.6735 73.728L68.2512 70.5771C69.2606 70.0484 70.254 69.4823 71.2295 68.8805H83.9847C84.476 68.8805 84.8747 68.4818 84.8747 67.9905V54.4841C84.8747 53.9928 84.476 53.5941 83.9847 53.5941H69.0863L67.1832 52.1396C67.9169 52.1552 68.8399 52.246 68.8939 51.2494V37.7432C68.8939 37.2519 68.4951 36.8531 68.0038 36.8531H58.7593C58.5019 36.1897 58.0564 35.5106 57.5861 35.0177H83.9845C84.4758 35.0177 84.8745 34.619 84.8745 34.1277V20.6213C84.8745 20.13 84.4758 19.7313 83.9845 19.7313H48.9807C48.4894 19.7313 48.0906 20.13 48.0906 20.6213V27.8881C47.715 27.5517 47.3021 27.2509 46.8268 26.9999V20.6215C46.8268 20.1302 46.428 19.7315 45.9367 19.7315H34.2569C34.0433 19.2402 33.8226 18.7524 33.5823 18.277H60.205C60.6963 18.277 61.095 17.8782 61.095 17.3869V3.88076C61.095 3.38946 60.6963 2.99072 60.205 2.99072H25.2011C24.7098 2.99072 24.3111 3.38946 24.3111 3.88076V12.8956C23.8928 12.8814 23.4709 12.8743 23.0472 12.8654V3.88076C23.0472 3.38946 22.6485 2.99072 22.1572 2.99072H9.22049C8.72883 2.99072 8.33008 3.38946 8.33008 3.88076ZM73.3889 82.0898C72.3983 80.1557 68.6404 75.5962 67.9967 79.1596C67.509 82.2955 69.0651 85.9626 71.721 87.8682C72.3529 88.3186 72.9261 88.5929 73.4014 88.3773C74.795 87.4282 74.0276 83.9747 73.3889 82.0898ZM68.4471 75.067C68.0323 74.8445 67.6514 74.7555 67.3203 74.905C66.4521 75.4223 66.5677 76.7945 66.5762 77.7408C67.2019 76.346 68.4777 75.768 69.9372 76.224C69.4551 75.7379 69.0041 75.3817 68.4471 75.067ZM56.9933 46.5982L54.7912 44.9158C54.1689 44.4107 53.1594 44.8649 53.125 45.667C52.8833 49.0732 51.4203 69.8261 51.2148 72.6991C51.1554 73.3341 51.7588 73.9016 52.3897 73.801C56.0088 73.2901 59.4516 72.3965 62.7289 71.1289L61.6413 68.7185C61.0432 67.3959 61.6324 65.8364 62.9569 65.24C64.2795 64.6419 65.8391 65.2311 66.4354 66.5537L67.5177 68.9517C70.6259 67.3156 73.5685 65.3148 76.3528 62.9614C76.8492 62.5571 76.8275 61.728 76.3083 61.352C72.3287 58.3107 62.89 51.1009 56.9933 46.5982ZM66.2805 70.5399L64.8138 67.2875C64.3497 66.2778 62.8124 66.9701 63.2633 67.9871L65.8766 73.7745C66.0885 73.5662 66.327 73.4007 66.5869 73.2832C66.8468 73.1657 67.128 73.0963 67.4253 73.0749L66.2805 70.5399ZM22.0465 14.6136C18.1947 14.6032 14.0929 12.8248 10.1103 11.7724V67.1006H49.8264L51.3503 45.5408C51.434 43.3688 54.1863 42.1264 55.8703 43.5008L56.7674 44.1862C57.3294 40.5217 58.6737 36.6947 54.309 34.9506C52.9428 34.3498 51.4884 33.9002 50.284 32.93C46.4569 29.3314 47.5958 27.965 41.4043 27.8015C36.9698 27.7308 34.5572 25.341 33.0394 21.4067C30.8167 15.319 28.0783 14.5901 22.0465 14.6136ZM71.4164 55.3745C73.8339 57.2206 75.9631 58.8476 77.3889 59.9372C78.8 60.9586 78.8605 63.2282 77.5029 64.3201C76.3351 65.3081 75.1405 66.2339 73.9176 67.1008H83.0944V55.3747H71.4164V55.3745ZM70.1579 51.2497C70.1579 51.741 70.5566 52.1397 71.0479 52.1397H83.9847C84.476 52.1397 84.8747 51.741 84.8747 51.2497V37.7434C84.8747 37.2521 84.476 36.8533 83.9847 36.8533H71.0479C70.5566 36.8533 70.1579 37.2521 70.1579 37.7434V51.2497ZM71.938 50.3597V38.6336H83.0944V50.3597H71.938ZM59.1741 38.6336C59.3947 40.8873 58.526 43.2342 58.4372 45.4605C59.9055 46.5809 63.3523 49.2135 64.8529 50.3597H67.1138V38.6336H59.1741ZM54.8339 33.2378H83.0944V21.5117H49.8707V29.9196C51.1064 31.7208 52.8639 32.5108 54.8339 33.2378ZM35.0293 21.5117C37.2501 26.7954 40.3943 25.6312 45.0465 26.3841V21.5117H35.0293ZM62.3588 17.3871C62.3588 17.8784 62.7558 18.2771 63.2489 18.2771H83.9845C84.4758 18.2771 84.8745 17.8784 84.8745 17.3871V3.88076C84.8745 3.38946 84.4758 2.99072 83.9845 2.99072H63.2489C62.7558 2.99072 62.3588 3.38946 62.3588 3.88076V17.3871ZM64.1391 16.4969V4.7708H83.0946V16.4969H64.1391ZM26.091 13.0202C28.3811 13.2196 31.0571 14.4078 32.5121 16.4969H59.3145V4.7708C53.9437 4.7708 26.091 4.7708 26.091 4.7708V13.0202ZM21.2668 12.7995V4.7708H10.1103V9.93337C13.658 10.82 17.8441 12.5962 21.2668 12.7995Z" fill="black"/>
</svg>
